<svg id="Layer_1" data-name="Layer 1" xmlns="http://www.w3.org/2000/svg" viewBox="0 0 78 78"><defs><style>.cls-1{fill:none;stroke:#000;stroke-linecap:round;stroke-linejoin:round;stroke-width:3px;}</style></defs><path class="cls-1" d="M55.61,39A16.56,16.56,0,1,1,39.05,22.45,16.56,16.56,0,0,1,55.61,39Z"/><line class="cls-1" x1="39.05" y1="14.44" x2="39.05" y2="9.23"/><line class="cls-1" x1="9.34" y1="39.01" x2="14.56" y2="39.01"/><line class="cls-1" x1="56.37" y1="56.33" x2="60.47" y2="60.43"/><line class="cls-1" x1="17.63" y1="17.59" x2="21.73" y2="21.69"/><line class="cls-1" x1="21.73" y1="56.33" x2="17.63" y2="60.43"/><line class="cls-1" x1="60.47" y1="17.59" x2="56.37" y2="21.69"/><line class="cls-1" x1="56.37" y1="21.69" x2="60.47" y2="17.59"/><line class="cls-1" x1="17.63" y1="60.43" x2="21.73" y2="56.33"/><line class="cls-1" x1="56.32" y1="56.38" x2="60.42" y2="60.48"/><line class="cls-1" x1="17.58" y1="17.64" x2="21.68" y2="21.74"/><line class="cls-1" x1="39" y1="63.56" x2="39" y2="68.77"/><line class="cls-1" x1="39" y1="9.35" x2="39" y2="14.57"/><line class="cls-1" x1="14.5" y1="39.06" x2="9.29" y2="39.06"/><line class="cls-1" x1="68.71" y1="39.06" x2="63.49" y2="39.06"/></svg>