<svg id="Layer_1" data-name="Layer 1" xmlns="http://www.w3.org/2000/svg" viewBox="0 0 78 78"><defs><style>.cls-1{fill:none;stroke:#000;stroke-linecap:round;stroke-linejoin:round;stroke-width:3px;}</style></defs><path class="cls-1" d="M46.68,41.15a8.63,8.63,0,0,1-1.9,17H16.9c-4.76,0-8.62-3.39-8.62-8.15a8.63,8.63,0,0,1,6.62-8.39,7.07,7.07,0,0,1-.36-2.22A6.94,6.94,0,0,1,26.36,34.5h0a10.75,10.75,0,0,1,20.54,4.43,19.85,19.85,0,0,1-.23,2.22Z"/><path class="cls-1" d="M39.64,28.76a10.85,10.85,0,1,1,12.86,17"/><line class="cls-1" x1="47.76" y1="17.81" x2="47.73" y2="13.6"/><line class="cls-1" x1="65.52" y1="37.63" x2="69.74" y2="37.6"/><line class="cls-1" x1="61.19" y1="23.18" x2="64.15" y2="20.18"/><line class="cls-1" x1="33.28" y1="23.18" x2="30.32" y2="20.18"/><line class="cls-1" x1="62.5" y1="52.87" x2="59.54" y2="49.87"/></svg>