<svg id="Layer_1" data-name="Layer 1" xmlns="http://www.w3.org/2000/svg" viewBox="0 0 78 78"><defs><style>.cls-1{fill:none;stroke:#000;stroke-linecap:round;stroke-linejoin:round;stroke-width:3px;}</style></defs><path class="cls-1" d="M53.22,36.7a9.87,9.87,0,0,1-2.17,19.49H19.16c-5.45,0-9.87-3.88-9.87-9.32a9.88,9.88,0,0,1,7.58-9.6A7.94,7.94,0,0,1,30,29.09h0a12.3,12.3,0,0,1,23.5,5.07,23,23,0,0,1-.26,2.54Z"/><path class="cls-1" d="M55.16,34.6C62.23,34.6,69,28.87,69,21.79c0-.06,0-.11,0-.17A9.52,9.52,0,1,1,54.65,9.08c-6.36.75-11.3,5.15-11.3,11.71"/></svg>