<svg id="Layer_1" data-name="Layer 1" xmlns="http://www.w3.org/2000/svg" viewBox="0 0 78 78"><defs><style>.cls-1{fill:none;stroke:#000;stroke-linecap:round;stroke-linejoin:round;stroke-width:3px;}</style></defs><path class="cls-1" d="M55.54,37.38a10.53,10.53,0,0,1-2.32,20.81h-34c-5.82,0-10.53-4.14-10.53-10A10.53,10.53,0,0,1,16.73,38a8.37,8.37,0,0,1-.44-2.71,8.48,8.48,0,0,1,14.44-6h0a13.13,13.13,0,0,1,25.09,5.42,24.23,24.23,0,0,1-.28,2.71Z"/><path class="cls-1" d="M46.94,22.25A13.25,13.25,0,1,1,62.65,43"/></svg>