<svg id="Layer_1" data-name="Layer 1" xmlns="http://www.w3.org/2000/svg" viewBox="0 0 78 78"><defs><style>.cls-1{fill:none;stroke:#000;stroke-linecap:round;stroke-linejoin:round;stroke-width:3px;}</style></defs><path class="cls-1" d="M59.55,26.19A11.19,11.19,0,0,1,57.09,48.3H20.91c-6.18,0-11.19-4.39-11.19-10.58a11.19,11.19,0,0,1,8.59-10.88A9,9,0,0,1,26.85,15a9,9,0,0,1,6.34,2.61h0a14,14,0,0,1,26.66,5.75,25.5,25.5,0,0,1-.3,2.88Z"/><path d="M25.23,55.34a11.61,11.61,0,0,1,3.59,7.08,3.59,3.59,0,0,1-7.17,0A11.62,11.62,0,0,1,25.23,55.34Z"/><path d="M52.9,55.34a11.61,11.61,0,0,1,3.59,7.08,3.59,3.59,0,0,1-7.17,0A11.62,11.62,0,0,1,52.9,55.34Z"/><path d="M39.07,58.7a11.55,11.55,0,0,1,3.58,7.08,3.58,3.58,0,0,1-7.16,0A11.55,11.55,0,0,1,39.07,58.7Z"/></svg>