<svg id="Layer_1" data-name="Layer 1" xmlns="http://www.w3.org/2000/svg" viewBox="0 0 78 78"><defs><style>.cls-1{fill:none;stroke:#000;stroke-linecap:round;stroke-linejoin:round;stroke-width:3px;}</style></defs><path class="cls-1" d="M49.27,33a7.76,7.76,0,0,1-1.71,15.34H22.45c-4.29,0-7.77-3-7.77-7.34a7.77,7.77,0,0,1,6-7.56,5.94,5.94,0,0,1-.33-2A6.25,6.25,0,0,1,31,27h0a9.69,9.69,0,0,1,18.51,4,17.79,17.79,0,0,1-.21,2Z"/><path class="cls-1" d="M52.06,33.42c7.07,0,13.81-5.73,13.81-12.8,0-.07,0-.12,0-.18A9.52,9.52,0,1,1,51.55,7.91c-6.36.74-11.3,5.14-11.3,11.71"/><path d="M24,54.67a9.08,9.08,0,0,1,2.81,5.57,2.82,2.82,0,0,1-5.63,0A9.13,9.13,0,0,1,24,54.67Z"/><path d="M45.77,54.68a9,9,0,0,1,2.81,5.56,2.82,2.82,0,1,1-5.63,0A9.09,9.09,0,0,1,45.77,54.68Z"/><path d="M34.89,57.32a9.11,9.11,0,0,1,2.82,5.56,2.82,2.82,0,1,1-5.64,0A9.11,9.11,0,0,1,34.89,57.32Z"/></svg>