<svg id="Layer_1" data-name="Layer 1" xmlns="http://www.w3.org/2000/svg" viewBox="0 0 78 78"><defs><style>.cls-1{fill:none;stroke:#000;stroke-linecap:round;stroke-linejoin:round;stroke-width:3px;}</style></defs><path class="cls-1" d="M60.31,25.83a11.61,11.61,0,0,1-2.55,22.93H20.24c-6.41,0-11.6-4.56-11.6-11A11.61,11.61,0,0,1,17.55,26.5a9.17,9.17,0,0,1-.49-3A9.34,9.34,0,0,1,33,16.88h0a14.47,14.47,0,0,1,27.65,6,26.82,26.82,0,0,1-.31,3Z"/><line class="cls-1" x1="23.62" y1="55.92" x2="22.62" y2="63"/><line class="cls-1" x1="33.99" y1="55.92" x2="31.99" y2="70"/><line class="cls-1" x1="44.73" y1="55.92" x2="42.73" y2="70"/><line class="cls-1" x1="55.11" y1="55.92" x2="54.11" y2="63"/></svg>