<svg id="Layer_1" data-name="Layer 1" xmlns="http://www.w3.org/2000/svg" viewBox="0 0 78 78"><defs><style>.cls-1{fill:none;stroke:#000;stroke-linecap:round;stroke-linejoin:round;stroke-width:3px;}</style></defs><line class="cls-1" x1="18.56" y1="55.72" x2="17.79" y2="61.21"/><line class="cls-1" x1="26.61" y1="55.72" x2="25.06" y2="66.64"/><line class="cls-1" x1="34.94" y1="55.72" x2="33.39" y2="66.64"/><line class="cls-1" x1="42.98" y1="55.72" x2="42.21" y2="61.21"/><path class="cls-1" d="M46.75,32.05a8.63,8.63,0,0,1-1.9,17H17c-4.76,0-8.62-3.39-8.62-8.15A8.61,8.61,0,0,1,15,32.55a6.8,6.8,0,0,1-.36-2.22A6.94,6.94,0,0,1,26.43,25.4h0A10.75,10.75,0,0,1,47,29.83a19.56,19.56,0,0,1-.23,2.22Z"/><path class="cls-1" d="M39.71,19.66a10.84,10.84,0,1,1,12.86,17"/><line class="cls-1" x1="47.82" y1="8.71" x2="47.8" y2="4.5"/><line class="cls-1" x1="65.59" y1="28.53" x2="69.8" y2="28.5"/><line class="cls-1" x1="61.25" y1="14.08" x2="64.21" y2="11.08"/><line class="cls-1" x1="33.35" y1="14.08" x2="30.39" y2="11.08"/><line class="cls-1" x1="62.56" y1="43.77" x2="59.6" y2="40.77"/></svg>