<svg id="Layer_1" data-name="Layer 1" xmlns="http://www.w3.org/2000/svg" viewBox="0 0 78 78"><defs><style>.cls-1,.cls-2{fill:none;stroke:#000;stroke-linecap:round;stroke-linejoin:round;}.cls-1{stroke-width:3px;}.cls-2{stroke-width:2px;}</style></defs><path class="cls-1" d="M19,50.46c-5.82,0-10.54-4.14-10.54-10a10.53,10.53,0,0,1,8.09-10.24,8.37,8.37,0,0,1-.44-2.71,8.48,8.48,0,0,1,14.44-6h0a13.13,13.13,0,0,1,25.09,5.42,24.23,24.23,0,0,1-.28,2.71h0A10.53,10.53,0,0,1,53,50.46"/><path class="cls-1" d="M46.73,14.52A13.25,13.25,0,1,1,62.44,35.24"/><line class="cls-2" x1="35.99" y1="38.08" x2="35.99" y2="62.83"/><line class="cls-2" x1="48.37" y1="50.46" x2="23.62" y2="50.46"/><polyline class="cls-2" points="25.61 46.88 29.2 50.46 25.61 54.04"/><polyline class="cls-2" points="46.37 54.04 42.78 50.46 46.37 46.88"/><polyline class="cls-2" points="32.41 60.83 35.99 57.25 39.57 60.83"/><polyline class="cls-2" points="39.57 40.08 35.99 43.67 32.41 40.08"/><line class="cls-2" x1="44.74" y1="41.71" x2="27.24" y2="59.21"/><line class="cls-2" x1="44.74" y1="59.21" x2="27.24" y2="41.71"/></svg>