<svg id="Layer_1" data-name="Layer 1" xmlns="http://www.w3.org/2000/svg" viewBox="0 0 78 78"><defs><style>.cls-1,.cls-2{fill:none;stroke:#000;stroke-linecap:round;stroke-linejoin:round;}.cls-1{stroke-width:3px;}.cls-2{stroke-width:2px;}</style></defs><path class="cls-1" d="M20.91,52.94c-6.18,0-11.19-4.4-11.19-10.58a11.19,11.19,0,0,1,8.59-10.89,9,9,0,0,1,8.54-11.88,9,9,0,0,1,6.34,2.6h0A14,14,0,0,1,59.85,28a25.5,25.5,0,0,1-.3,2.88h0a11.19,11.19,0,0,1-2.46,22.11"/><line class="cls-2" x1="39" y1="40.56" x2="39" y2="65.31"/><line class="cls-2" x1="51.37" y1="52.94" x2="26.62" y2="52.94"/><polyline class="cls-2" points="28.62 49.36 32.21 52.94 28.62 56.52"/><polyline class="cls-2" points="49.37 56.52 45.79 52.94 49.37 49.35"/><polyline class="cls-2" points="35.42 63.31 39 59.73 42.58 63.31"/><polyline class="cls-2" points="42.58 42.56 39 46.15 35.42 42.56"/><line class="cls-2" x1="47.75" y1="44.19" x2="30.25" y2="61.69"/><line class="cls-2" x1="47.75" y1="61.69" x2="30.25" y2="44.19"/></svg>