<svg id="Layer_1" data-name="Layer 1" xmlns="http://www.w3.org/2000/svg" viewBox="0 0 78 78"><defs><style>.cls-1{fill:none;stroke:#000;stroke-linecap:round;stroke-linejoin:round;stroke-width:3px;}</style></defs><path class="cls-1" d="M61,26.26a11.61,11.61,0,0,1-2.56,22.93H20.9c-6.41,0-11.61-4.56-11.61-11a11.61,11.61,0,0,1,8.92-11.29,9.17,9.17,0,0,1-.49-3,9.34,9.34,0,0,1,15.91-6.64h0a14.46,14.46,0,0,1,27.64,6,27.4,27.4,0,0,1-.3,3Z"/><line class="cls-1" x1="22.57" y1="57.73" x2="28.03" y2="63.19"/><line class="cls-1" x1="22.57" y1="63.31" x2="28.09" y2="57.79"/><line class="cls-1" x1="50.54" y1="57.67" x2="56" y2="63.13"/><line class="cls-1" x1="50.54" y1="63.25" x2="56.06" y2="57.73"/><line class="cls-1" x1="36.24" y1="63.52" x2="41.7" y2="68.98"/><line class="cls-1" x1="36.24" y1="69.11" x2="41.76" y2="63.58"/></svg>