<svg id="Layer_1" data-name="Layer 1" xmlns="http://www.w3.org/2000/svg" viewBox="0 0 78 78"><defs><style>.cls-1,.cls-2{stroke:#000;stroke-linecap:round;stroke-linejoin:round;}.cls-2{fill:none;stroke-width:3px;}</style></defs><polygon class="cls-1" points="34.45 48.95 27.08 58.16 34.15 58.24 25.98 69.03 50.26 55.59 41.73 55.55 46.24 48.95 34.45 48.95"/><path class="cls-2" d="M60.2,24.84a11.55,11.55,0,0,1-2.54,22.81H20.33C14,47.65,8.79,43.11,8.79,36.74A11.55,11.55,0,0,1,17.65,25.5a9.31,9.31,0,0,1,8.82-12.26A9.27,9.27,0,0,1,33,15.93h0a14.4,14.4,0,0,1,27.51,5.94,26.27,26.27,0,0,1-.31,3Z"/></svg>