<svg id="Layer_1" data-name="Layer 1" xmlns="http://www.w3.org/2000/svg" viewBox="0 0 78 78"><defs><style>.cls-1{fill:none;stroke-width:3px;}.cls-1,.cls-2{stroke:#000;stroke-linecap:round;stroke-linejoin:round;}</style></defs><path class="cls-1" d="M48,33.15a7.77,7.77,0,0,1-1.7,15.35H21.17c-4.29,0-7.76-3-7.76-7.34a7.77,7.77,0,0,1,6-7.56A6.26,6.26,0,0,1,29.7,27.16h0a9.68,9.68,0,0,1,18.5,4,17.5,17.5,0,0,1-.21,2Z"/><path class="cls-1" d="M50.79,33.56c7.07,0,13.8-5.74,13.8-12.81a1.09,1.09,0,0,0,0-.18A9.51,9.51,0,1,1,50.28,8C43.92,8.79,39,13.19,39,19.75"/><polygon class="cls-2" points="30.18 49.14 23.92 56.95 29.93 57.02 22.99 66.17 43.58 54.77 36.35 54.73 40.18 49.14 30.18 49.14"/></svg>