<svg id="Layer_1" data-name="Layer 1" xmlns="http://www.w3.org/2000/svg" viewBox="0 0 78 78"><defs><style>.cls-1,.cls-2{stroke:#000;stroke-linecap:round;stroke-linejoin:round;}.cls-2{fill:none;stroke-width:3px;}</style></defs><polygon class="cls-1" points="34.97 49.79 28.71 57.6 34.72 57.68 27.78 66.83 48.38 55.43 41.15 55.39 44.97 49.79 34.97 49.79"/><path class="cls-2" d="M60.2,25.59A11.55,11.55,0,0,1,57.66,48.4H20.33C14,48.4,8.79,43.86,8.79,37.48a11.55,11.55,0,0,1,8.87-11.23,9.1,9.1,0,0,1-.49-3A9.29,9.29,0,0,1,33,16.68h0a14.4,14.4,0,0,1,27.51,5.94,26.57,26.57,0,0,1-.31,3Z"/><path class="cls-1" d="M23.38,55.59a1.91,1.91,0,1,1-1.91-1.9A1.9,1.9,0,0,1,23.38,55.59Z"/><path class="cls-1" d="M58,55.59a1.91,1.91,0,1,1-1.91-1.9A1.91,1.91,0,0,1,58,55.59Z"/><path class="cls-1" d="M48,64.59a1.91,1.91,0,1,1-1.91-1.9A1.91,1.91,0,0,1,48,64.59Z"/></svg>