<svg id="Layer_1" data-name="Layer 1" xmlns="http://www.w3.org/2000/svg" viewBox="0 0 512 512"><defs><style>.cls-1{fill:hsl(270, 100%, 85%);}</style></defs><circle class="cls-1" cx="256" cy="256" r="240"/><path d="M370.36,257.24c1.53-1.56,4.62-4.7,6.17-6.25a151.07,151.07,0,0,1-15.14-33.43,52.11,52.11,0,0,0-31.05.05l-3.28,8.27c-10.81,4.23-22.86,2.52-33.79,5.38a26.29,26.29,0,0,0-3.65-6.47l.44-.13c1.22-2.57,2.44-5.15,3.68-7.7-.57-2.88-1.1-5.8-1.61-8.69-1.36-.76-4.11-2.35-5.49-3.14.08-7.78.31-15.51.7-23.27a85.17,85.17,0,0,1-4.19-11.15c-1.41,0-4.18,0-5.57.06-.77-8.27-.68-17.49-9.68-21.09.05-6.54,2.69-14.21-3.09-19.08-.22-4.3-.42-8.57-.59-12.85-1.5-.82-4.45-2.43-5.92-3.25.12-2,.29-6,.37-8.07-2.77-1.47-5.55-2.91-8.26-4.36-.29-3.93-.49-7.84-.74-11.74A73.3,73.3,0,0,1,239.22,70.4c-11.4-7.5-15.62-21-22.3-32.16-3.11-5.54-9.37-8.63-11.77-14.57-1.67-4.48-6.2-6.57-9.77-9.23-.14-3.31-.28-6.6-.37-9.88a38.59,38.59,0,0,0-40.13,2.29c-1.76,3.48-3.6,6.94-5.55,10.33-2,17.7-.14,35.58-1.05,53.39-1.1,9.25,2.15,18,4.5,26.75,3.57,25.87,8,51.88,17.8,76.25,2,1.25,4,2.49,6.06,3.77,6.12,8.86,12.54,18.22,11.78,29.57,1.92,1,5.77,3,7.7,4-6.29,4.27-12.37,9.28-19.87,11.18-17,5.18-35.24-1.36-52.17,4.38-4.25,6.91-12.65,11.86-12.8,20.7,9.69,3.56,20,4.67,30,6.68,17.43,7.58,33.88,17.23,51,25.53,1.61,7.27-2.47,12.17-9.23,14.23-.26,1.39-.79,4.14-1.08,5.52,1.19,1.05,3.57,3.15,4.76,4.22-.14,1.39-.4,4.22-.54,5.63l-5.72-.34c-8.89,18.09-16.58,37-19.58,57.07-5.44,22.75-12.71,45.43-12.66,69.09-6.79,17.46-3.56,36.43-4.13,54.71-2,13.87,13.9,23.3,26.13,22.37,13.53,1.3,24.25-8,36.48-11.86-.34-1.87-1-5.55-1.36-7.39,9.32-8.58,15.66-20.07,26.21-27.32.51-1.27,1.48-3.85,2-5.15a63.91,63.91,0,0,0,9.2-3.54c-3-8.35,4.5-20.06-5-25.07,3.56-.91,7.16-1.84,10.75-2.72,5.13-8,3.54-20.24,13.9-24,2.41-7.31,3.65-14.95,5.69-22.34,1.47-4.27,5.74-6.93,6.91-11.32.7-5.94.5-11.94,1.13-17.86,3.17-1.7,6.85-2,10.33-2.86.85-9.31,2.32-18.62,1.47-28,1.27-10.53-2.66-20.58-4.53-30.74,5.61.17,11.38-.34,16.93.93,6.71,3.51,12.23,9,19.3,12,9.74,4,15.66,13.79,25.59,17.5,6.14,2.54,12.88,2.6,19.45,2.49-.31-8.27-1.42-16.79,2.2-24.51,6.15-4.08,7.08-10.65,6.57-17.47C373.33,274,381.66,261.83,370.36,257.24Z"/></svg>